<?xml version="1.0" encoding="UTF-8" standalone="no"?> <svg xmlns="http://www.w3.org/2000/svg" viewBox="0 0 64 64"><g id="Layer_54" data-name="Layer 54"><path d="M60.22,46.08l0-.1-.75-1.35-1.13-2.87-.23-.32h0l-.37-.52s0,0,0,0h0l-1.84-1.74-1.27-.87-1.93-.88,0,0a.36.36,0,0,0,0-.09l.27-.94a.24.24,0,0,0,0-.12l-.17-.79a.31.31,0,0,0,0-.1h0l-.05-.06h0l-.78-.52-.6-.37h0l-.06,0-2.62-.72L54,26l0-.06.14-.41a.25.25,0,0,0,0-.12h0a.24.24,0,0,0-.09-.15h0l-.07,0-1.52-.49a.2.2,0,0,0-.21,0L42.91,30.8l-2.51,1-8.95-4.1-.85-.4,0,0-2.74-1.32-1.24-1.11,3.06-2.27a.25.25,0,0,0,.1-.23l0-.16a.43.43,0,0,0,0-.05h0l0,0h0a.26.26,0,0,0-.13-.12l-.6-.23a.21.21,0,0,0-.19,0l-3.33,1.35L22,15.73a.32.32,0,0,0-.16-.14l-1-.33h-.12l-.2,0h0a.2.2,0,0,0-.13.09l0,0h0a.17.17,0,0,0,0,.12v0l.38,2.12h0l1,5.38.06.54-.15-.05h0a.27.27,0,0,0-.27.05l-.12.11a.26.26,0,0,0-.07.11l-.08.25a.2.2,0,0,0,0,.07v.29L12.81,25h0l-.1,0a.23.23,0,0,0-.07.07.2.2,0,0,0,0,.08.22.22,0,0,0,0,.08v.18a.28.28,0,0,0,.13.2l.52.29,0,0h0l.07,0,8.28.32.1.25.83,1.25L23.42,29l1.14,1.25.14.11h0l1.59,1.25h0l1.22,1,1.63,1.38.33.18,1.17.64L27,35.49,4,37.63H4a.24.24,0,0,0-.11.06h0l0,0a.26.26,0,0,0,0,.17h0l0,.54a.31.31,0,0,0,.08.15l1,1a.24.24,0,0,0,.17.07H5l24,0h0a.24.24,0,0,0,0,.15l.15.36L30,41.39l.05,0,2.85,2.61,0,0h0l0,0,.94.37h0l.78.3a.28.28,0,0,0,.18,0l.92-.35a.2.2,0,0,0,.1-.08l.72-.86a.21.21,0,0,0,.06-.1l.25-1a.22.22,0,0,0,0-.14l-.3-.85s0,0,0,0h0a.18.18,0,0,0-.05-.07l-.7-.64-.07,0-.85-.37h0l-.77-.31.12,0a.25.25,0,0,0,.16-.17v0H39.6l11.83,6.49,1.43.66.08,0a.26.26,0,0,0,.13.19l.16.09-.09,0a.25.25,0,0,0-.12.11h0l-.16.32a.32.32,0,0,0,0,.17l.11.46a.24.24,0,0,0,.06.11l.32.35a.3.3,0,0,0,.16.08l.34,0h0a.2.2,0,0,0,.11,0l.36-.17.06,0a.11.11,0,0,0,.08,0l.36-.16a.23.23,0,0,0,.11-.11l.08-.15h0a.25.25,0,0,0,.24,0,.28.28,0,0,0,.13-.2l0-.37,2.18.22h1.59l.25,0a.35.35,0,0,0,.14-.06l.26-.22a.2.2,0,0,0,.06-.07l.21-.37,0-.06.1-.41a.28.28,0,0,0,0-.09Zm-2.59-4.4.06.38-.36.35-1,.19-.84-.05.24-.45L57,41.89a.24.24,0,0,0,.11-.06l.4-.38ZM52,36.89l.15-.55v0l-.16.56,0,0A.2.2,0,0,0,52,36.89Zm-.36-1,0,.22-.16.56-.1.12-.33-.15.08-.27.36-.45Zm-.48-1.08.33.2-.27.09a.23.23,0,0,0-.11.08l-.62.76a.19.19,0,0,0,0,.09l-.08.28-.52-.24.09-.31.6-.74Zm-.82-.25h0a.23.23,0,0,0-.11.08l-.68.83a.41.41,0,0,0-.05.09l-.08.29-1.79-.82L48,34.5a.26.26,0,0,0,0-.32l.13-.19h0Zm-7.2-3.36,9.3-6,1.09.36-6.59,9.22L41,32.07ZM27.51,26.33h0l.24.22-.1,0-.93-.95Zm1.36-4.1.06,0-2.95,2-.33-.71Zm-2.44,3.82-.74-.35L25.42,25ZM25,25.4l-.08,0-.29-1Zm-4.1-9.5.46.16,1.32,3.05-.68-1-.44-.44-.39-.21Zm.74,4h0l-.33-1.85,1.31,1.88.68,1.29L23.15,21l-.46-.53-.25-.21-.25-.17L21.94,20l-.22-.07Zm.07.58v0l.19.09.4.31.41.47.4.61.37.72.82,2.43-2-.95V24h0a.09.09,0,0,0,0-.05v0L22.2,23Zm.43,5.81h.31a.24.24,0,0,0,.26-.24.24.24,0,0,0-.09-.21h.24a.25.25,0,0,0,.25-.25.25.25,0,0,0-.25-.25l-7.13-.07,5.59-.35h.2a.24.24,0,0,0,.23-.26.26.26,0,0,0-.24-.24V24.2l0-.08.25.11v.09h0v.1a.23.23,0,0,0,.14.2l2.23,1-.19.11a.41.41,0,0,0-.12.14l-.49,1a.17.17,0,0,0,0,.12l.08.84.05.36Zm2.32.36-.31.91a.2.2,0,0,0,0,.11l.36,1.46v.05l-.49-.81L24,27.81l-.07-.75.44-.9.44-.24L25,26l-.27.16a.29.29,0,0,0-.1.12Zm5.25,7h0l-.41-.26-.76-.64a.28.28,0,0,0-.07-.09l-.66-.52h0l-1.21-1-1.54-2-.3-1-.11-.55.12-.37.28-.7.48-.3,2.13,1a.23.23,0,0,0,.18,0h0l.07,0,0,.12,0,.31-.12.24a.24.24,0,0,0,0,.23l.27.58.18.47.11.5.07.46a.24.24,0,0,0,0,.08l.56,1.27.3.88,0,.07,1.2,1.64h0Zm3,7.93a.16.16,0,0,0-.05.11l-.28,1.19a.28.28,0,0,0,0,.09l-2-1.88-.74-1.16-.1-.24v0h2.62l.65.26h0l1.26.51-.4.14a.21.21,0,0,0-.11.07Zm1.42,2.47h0l.06,0,.53.21Zm1.18-.43.3-.37-.27.35Zm.22-2.24.57.25h0l0,0-.41-.18-.13,0Zm-.05.81-.15.62-.43.51-.48.18-.12-.29.15-.63.45-.52.47-.17Zm-.74-1.5.55.24-.77.28a.26.26,0,0,0-.11.07l-.74.87a.24.24,0,0,0-.06.11l-.25,1.08a.22.22,0,0,0,0,.14l.12.32-.3-.12L33,42.91l.25-1,.73-.86ZM53.7,48.24h-.07l-.2-.22-.08-.31,0-.09h.08l.2.22.08.31Zm1.22-.79-.19-.11.19.06Zm4.74-.69-.17.3-.18.15H57.63L55.26,47l-2-.6h0L53,46.31l-1.39-.63-11-6h.13a.25.25,0,0,0,.25-.25.25.25,0,0,0-.25-.25H29.37l-24.06,0v0l35.41-.29a.25.25,0,0,0,0-.5h0l-35.54.3-.6-.55L27.09,36l4.32-.91h0l.31-.07h0l1.34-.28a.25.25,0,1,0-.11-.49l-1.23.26-.42-.29-.63-.79-.84-1.18-.3-.88-.25-.62L29,30.15l0-.08-.06-.44-.14-.57-.19-.51-.23-.49.08-.16,0-.06a.17.17,0,0,0,0-.07l0-.4a.34.34,0,0,0,0-.1l0-.07,1.88.51,10,4.57h0l6.62,3h0l.19.09h0l2.33,1.06h0l1,.44h0l.27.12h0l.7.32h0l.46.21h0l.26.13h0l2.17,1,1.21.83,1.62,1.54-.35.33-1.26.23a.24.24,0,0,0-.18.13l-.48.89a.21.21,0,0,0,0,.24.22.22,0,0,0,.2.13l1.29.08,1.13-.21a.24.24,0,0,0,.11-.06l.43-.41,1,2.42.73,1.34,0,.25Z"/></g></svg>